# xmcd
#
# Track frame offsets:
#	150
#	29792
#	73444
#	108838
#	140725
#	168688
#	207632
#	240270
#	271297
#	295641
#	327080
#
# Disc length: 4797 seconds
#
# Revision: 1
# Processed by: cddbd v1.5.1PL2 Copyright (c) Steve Scherf et al.
# Submitted via: EasyCDDAExtractor 9.0.0.1
#
DISCID=af12bb0b
DTITLE=Virgin Steele - Visions Of Eden
DYEAR=2006
DGENRE=Symphonic Rock
TTITLE0=Immortal I Stand (The Birth Of Adam)
TTITLE1=Adorned With The Rising Cobra
TTITLE2=The Ineffable Name
TTITLE3=Black Light On Black
TTITLE4=Bonedust
TTITLE5=Angel Of Death
TTITLE6=God Above God
TTITLE7=The Hidden God
TTITLE8=Childslayer
TTITLE9=When Dusk Fell
TTITLE10=Visions Of Eden
EXTD=
EXTT0=
EXTT1=
EXTT2=
EXTT3=
EXTT4=
EXTT5=
EXTT6=
EXTT7=
EXTT8=
EXTT9=
EXTT10=
PLAYORDER=
